# xmcd
# 
# Track frame offsets:
#     150
#     22055
#     39895
#     59206
#     77591
#     97458
#     114285
#     129269
#     146409
#     162346
#     171971
# 
# Disc length: 2486
# 
# Revision: 0
# Processed by: cddbd v1.5.2PL0 Copyright (c) Steve Scherf et al.
# Submitted via: BonkEnc v1.0.15
# 
DISCID=9409b40b
DTITLE=Rodney Parker - Blow the Soot Out
DYEAR=2004
DGENRE=Country
TTITLE0=Just the Sounds
TTITLE1=200 Acres
TTITLE2=Shake
TTITLE3=Someplace Else
TTITLE4=Take the Wheel
TTITLE5=When I Wake Up
TTITLE6=Mesquite Tree
TTITLE7=Drive Away
TTITLE8=Highway Blues
TTITLE9=Bring Me My Gun
TTITLE10=Wednesday Carol
EXTD=
EXTT0=
EXTT1=
EXTT2=
EXTT3=
EXTT4=
EXTT5=
EXTT6=
EXTT7=
EXTT8=
EXTT9=
EXTT10=
PLAYORDER=
